<svg id="Layer_1" data-name="Layer 1" xmlns="http://www.w3.org/2000/svg" viewBox="0 0 1117.92 231.49"><defs><style>.cls-1{fill:#57b3f2;}.cls-2{fill:#1c84ee;}.cls-3{fill:#a3aed1;}</style></defs><path class="cls-1" d="M367,830.45l-.61.26-.62.26-.62.26-.62.26-.61.26-.62.26-.62.26-.61.26-.51.2-.51.21-.51.2-.51.2-.51.21-.51.2-.51.2-.5.21c-.3,1-.59,2.09-.87,3.14s-.55,2.11-.82,3.17-.53,2.13-.79,3.19-.5,2.14-.74,3.21-.48,2.15-.7,3.23-.45,2.16-.66,3.24-.41,2.16-.6,3.24-.38,2.17-.55,3.25-.37,2.37-.55,3.56-.34,2.37-.5,3.55-.31,2.37-.46,3.55-.29,2.37-.42,3.55-.27,2.36-.39,3.54-.24,2.36-.35,3.54-.21,2.35-.31,3.53l-.27,3.52-.24,3.53c-.08,1.18-.15,2.35-.22,3.52s-.14,2.35-.2,3.52-.13,2.35-.19,3.52-.12,2.34-.17,3.51-.11,2.34-.16,3.51-.11,2.34-.16,3.51-.1,2.34-.14,3.51l-.07,1.74-.06,1.74-.06,1.74-.06,1.74-.07,1.74-.06,1.74-.06,1.74-.07,1.74c0,.47,0,.93-.07,1.39s-.08.9-.15,1.34-.14.87-.23,1.29-.19.82-.31,1.21-.24.75-.37,1.1a9.17,9.17,0,0,1-.44,1,6.8,6.8,0,0,1-.5.85,4.9,4.9,0,0,1-.55.69c-.09.11-.19.21-.28.3l-.28.25-.28.22-.28.18-.29.15-.31.12a1.58,1.58,0,0,1-.31.09,1.94,1.94,0,0,1-.33.07,2,2,0,0,1-.35,0h-.38l-.4,0-.42-.07-.44-.09-.45-.14a3.8,3.8,0,0,1-.47-.18c-.16-.06-.32-.14-.49-.22s-.32-.16-.48-.26-.33-.19-.49-.29l-.49-.33-.49-.37-.49-.39-.47-.43c-.16-.15-.32-.3-.47-.46s-.31-.32-.46-.49l-.49-.56-.5-.59-.51-.61-.5-.62-.51-.63-.49-.64-.49-.65-.48-.65c-.64-.88-1.26-1.77-1.86-2.69s-1.19-1.84-1.77-2.78-1.13-1.91-1.68-2.88-1.08-2-1.6-2.94-1-2-1.53-3-1-2-1.47-3.06-.95-2.06-1.41-3.1-.92-2.09-1.36-3.13c-.23-.53-.46-1.05-.68-1.58l-.66-1.58c-.22-.53-.44-1.06-.65-1.59s-.43-1.07-.65-1.6l-.63-1.6c-.21-.54-.42-1.07-.62-1.61s-.41-1.08-.61-1.61l-.6-1.62c-.2-.57-.41-1.13-.63-1.69s-.43-1.13-.66-1.7-.47-1.13-.71-1.69-.5-1.12-.76-1.68-.54-1.11-.82-1.66-.57-1.1-.87-1.64-.62-1.08-.94-1.61-.67-1.06-1-1.58-.71-1-1.08-1.52-.76-1-1.16-1.5-.82-1-1.26-1.45-.88-.94-1.35-1.38-1-.87-1.47-1.28-1-.79-1.6-1.15a17.31,17.31,0,0,0-1.73-1,16.73,16.73,0,0,0-1.88-.83,10.37,10.37,0,0,0-1-.31c-.34-.09-.68-.16-1-.22s-.69-.1-1.05-.13-.7,0-1.06,0a9.42,9.42,0,0,0-1.06.06c-.35,0-.7.09-1,.16a9.17,9.17,0,0,0-1,.27,8.94,8.94,0,0,0-1,.37c-.33.14-.64.3-.94.46s-.59.35-.87.54-.54.4-.8.61-.5.43-.74.66-.46.47-.68.71a8.81,8.81,0,0,0-.62.75c-.2.25-.39.51-.57.77s-.35.52-.52.79a1.24,1.24,0,0,0-.1.2.79.79,0,0,0-.06.22.78.78,0,0,0,0,.22.83.83,0,0,0,0,.22,1.6,1.6,0,0,0,0,.21l.09.21.13.18a.91.91,0,0,0,.17.17.77.77,0,0,0,.21.14.94.94,0,0,0,.23.1.85.85,0,0,0,.24.05h.24a1,1,0,0,0,.24,0,1,1,0,0,0,.22-.09,1.07,1.07,0,0,0,.21-.13l.19-.18h0c.18-.21.35-.41.53-.6l.56-.57c.19-.18.39-.35.59-.52a7,7,0,0,1,.6-.48c.2-.15.41-.29.62-.42s.43-.25.65-.36l.66-.3a5.9,5.9,0,0,1,.67-.23,5.73,5.73,0,0,1,.69-.16,5.05,5.05,0,0,1,.68-.08,5.3,5.3,0,0,1,.69,0l.68,0c.23,0,.45.07.68.12l.67.18q.33.1.66.24c.21.09.43.19.64.3a11.42,11.42,0,0,1,1.26.73,14.16,14.16,0,0,1,1.19.89q.57.48,1.11,1t1,1.14c.33.39.66.8,1,1.23s.62.86.91,1.31.58.91.84,1.37.53.93.78,1.41.49,1,.72,1.46.45,1,.67,1.49.42,1,.62,1.51.4,1,.58,1.54.37,1,.54,1.56.34,1.06.5,1.59.32,1.07.47,1.61.3,1.09.44,1.63.3,1.14.46,1.71.31,1.14.47,1.71.31,1.14.48,1.71.32,1.13.49,1.7l.51,1.7.51,1.71.54,1.7c.17.56.36,1.13.54,1.69.38,1.13.76,2.26,1.16,3.38s.81,2.25,1.23,3.37.85,2.24,1.3,3.35.92,2.23,1.4,3.34,1,2.21,1.5,3.31,1,2.2,1.61,3.29,1.14,2.17,1.74,3.25,1.23,2.15,1.88,3.21l.5.8.51.79.52.78.53.78.54.77.56.78.59.78.62.78c.22.28.45.55.69.82s.48.55.74.81.51.53.77.79.54.51.83.76l.86.74c.3.24.61.47.92.7s.64.45,1,.66.67.43,1,.63.7.39,1.07.57.74.36,1.13.52.78.31,1.19.45.82.26,1.24.37.85.2,1.29.28.88.14,1.33.19.9.07,1.37.08.92,0,1.39,0a13,13,0,0,0,1.4-.16c.47-.08.93-.18,1.39-.3s.91-.26,1.35-.42.89-.35,1.31-.54.85-.42,1.26-.65.8-.48,1.18-.75.74-.54,1.09-.82.68-.6,1-.91.63-.63.92-.95.57-.65.83-1,.51-.67.75-1,.46-.69.67-1,.41-.7.6-1.06.36-.71.53-1.07.33-.71.47-1.07.29-.71.42-1.07.25-.72.36-1.07.22-.72.32-1.08.19-.71.27-1.06.17-.71.24-1.07.13-.7.19-1,.12-.71.17-1.06.09-.69.13-1,.07-.7.1-1l.13-1.75.12-1.75.12-1.75.12-1.75.12-1.75.13-1.74.12-1.75.12-1.75c.09-1.16.17-2.31.26-3.47l.27-3.46c.09-1.15.18-2.31.28-3.46s.19-2.31.28-3.46l.3-3.45c.1-1.15.21-2.3.32-3.45s.21-2.3.33-3.44.23-2.29.35-3.44l.33-3.43.36-3.42c.12-1.14.25-2.28.38-3.41s.27-2.27.41-3.4.29-2.26.45-3.39.31-2.25.48-3.37.33-2.24.51-3.36.37-2.23.56-3.34.39-2.22.6-3.32.43-2.21.67-3.31.47-2.19.71-3.29.51-2.19.78-3.28.54-2.19.82-3.28.56-2.19.86-3.28.59-2.19.9-3.29.61-2.2.93-3.3l.37-1.27.36-1.27.37-1.27.36-1.28.37-1.27.36-1.27.37-1.27.36-1.27-.54.29-.54.28-.54.29-.54.28-.54.28-.54.29-.54.27-.55.27-.6.31-.59.3-.6.3-.6.3-.6.3-.59.3-.6.3Z" transform="translate(-138.23 -720.89)"/><path class="cls-1" d="M296.48,861.07c.49.23,1,.47,1.45.73s.95.54,1.42.84.93.61,1.39,1,.9.67,1.34,1,.88.73,1.31,1.12.85.79,1.26,1.2.82.84,1.21,1.27.79.88,1.17,1.33.76.91,1.13,1.37.75.93,1.11,1.41.71,1,1.06,1.45.69,1,1,1.49l1,1.52c.32.51.64,1,.95,1.55s.62,1,.93,1.57.59,1.07.88,1.6h0a1.37,1.37,0,0,0,.13.2l.16.16.19.13.2.1.22.06.22,0a.91.91,0,0,0,.23,0,1,1,0,0,0,.23-.06,1,1,0,0,0,.23-.12l.19-.16a1.37,1.37,0,0,0,.16-.18l.12-.22a1.55,1.55,0,0,0,.07-.23,1,1,0,0,0,0-.24,1.1,1.1,0,0,0,0-.25.73.73,0,0,0-.07-.24c-.45-1.16-.92-2.32-1.42-3.48s-1-2.31-1.58-3.46-1.15-2.28-1.78-3.4-1.3-2.22-2-3.3-1.48-2.13-2.3-3.15-1.69-2-2.62-2.94a33.56,33.56,0,0,0-3-2.7,32.83,32.83,0,0,0-3.4-2.41c-.3-.18-.61-.35-.92-.52s-.63-.32-1-.47-.65-.3-1-.43-.67-.27-1-.39l-1-.34-1.06-.28c-.36-.09-.72-.16-1.09-.23s-.73-.12-1.1-.17-.75-.08-1.12-.1-.75,0-1.13,0-.75,0-1.13,0-.75.05-1.13.09-.75.1-1.12.16-.75.13-1.12.21l-1.09.28c-.37.1-.72.22-1.08.34-.71.25-1.41.53-2.09.84s-1.33.65-2,1-1.25.76-1.85,1.17-1.17.85-1.73,1.31-1.1.93-1.62,1.42-1,1-1.5,1.51-.94,1.05-1.38,1.59-.86,1.09-1.27,1.64-.8,1.12-1.18,1.69-.75,1.16-1.1,1.74-.69,1.18-1,1.77-.64,1.2-.94,1.8-.59,1.21-.87,1.82-.55,1.22-.81,1.84-.51,1.22-.75,1.83-.47,1.23-.69,1.84l-.63,1.72c-.21.57-.42,1.14-.64,1.71s-.43,1.14-.65,1.71-.43,1.13-.65,1.7-.45,1.13-.67,1.7-.45,1.12-.68,1.69-.45,1.12-.68,1.68l-.7,1.68-1.41,3.35c-.48,1.11-1,2.22-1.45,3.32s-1,2.21-1.49,3.3-1,2.18-1.54,3.27-1.06,2.15-1.6,3.22-1.09,2.13-1.65,3.18-1.13,2.09-1.72,3.12S244.11,917,243.5,918c-.3.5-.61,1-.92,1.5s-.62,1-.94,1.48-.63,1-1,1.47-.64,1-1,1.43-.66.94-1,1.4l-1,1.36c-.34.45-.69.89-1,1.32s-.7.86-1.06,1.28l-.54.61-.54.6L234,931c-.18.19-.36.38-.55.56l-.54.54-.54.51-.55.48-.54.44-.14.11-.14.11-.15.11-.14.1-.14.1-.13.09-.14.09-.13.09c0-.15-.06-.3-.08-.46s-.05-.32-.07-.5,0-.34-.05-.52,0-.37,0-.56,0-.38,0-.57,0-.39,0-.59v-.61c0-.2,0-.41,0-.61s0-.26,0-.39,0-.25,0-.38,0-.26,0-.4l0-.39,0-.4c0-.13,0-.26,0-.4s0-.27,0-.4,0-.27,0-.4l0-.48,0-.47,0-.47,0-.48,0-.47,0-.47,0-.47,0-.48.08-.94.08-.95.08-1,.08-.94.08-1,.08-.94.08-1,.08-1c.05-.63.1-1.26.14-1.89s.08-1.27.11-1.9.05-1.27.08-1.91l.06-1.9c0-.64,0-1.28,0-1.91s0-1.27.05-1.91,0-1.27,0-1.91,0-1.27.05-1.91-.05-1.27-.06-1.91,0-1.28,0-1.92l0-1.92,0-1.91c0-.64,0-1.28-.05-1.92s-.05-1.28-.08-1.92-.07-1.27-.11-1.91-.1-1.28-.17-1.92q-.11-1.92-.27-3.84c-.11-1.28-.23-2.56-.37-3.84s-.29-2.56-.46-3.84-.35-2.55-.55-3.82-.41-2.55-.63-3.82-.46-2.54-.71-3.8-.52-2.53-.79-3.79-.57-2.52-.87-3.77c-.2-.83-.41-1.66-.62-2.48s-.44-1.65-.67-2.47-.46-1.64-.7-2.45-.49-1.62-.74-2.43-.51-1.61-.77-2.41-.52-1.61-.79-2.4-.54-1.6-.82-2.39l-.84-2.37-1.89-.73-1.89-.74-1.88-.77q-.93-.37-1.86-.78c-.63-.26-1.25-.53-1.86-.8l-1.85-.82-1.84-.85c-.61-.28-1.22-.57-1.82-.87l-.55-.26-.54-.27-.54-.27-.54-.28-.54-.28-.54-.28-.53-.27-.54-.28.21.54.21.54.21.53.21.54.21.54.21.53.21.54.21.54c.44,1.13.87,2.26,1.29,3.4s.84,2.26,1.25,3.39.8,2.27,1.19,3.4.77,2.27,1.14,3.4.73,2.27,1.08,3.41.68,2.28,1,3.42.64,2.28,1,3.42.59,2.29.87,3.44.56,2.3.83,3.45.52,2.3.76,3.46.48,2.31.7,3.48.43,2.32.62,3.49.38,2.33.54,3.51.33,2.34.47,3.52.26,2.36.38,3.54.21,2.36.29,3.55c.07.59.12,1.18.17,1.78s.1,1.18.13,1.78.07,1.18.09,1.78,0,1.19.07,1.79,0,1.19.05,1.79,0,1.19,0,1.79,0,1.2.06,1.79,0,1.2.07,1.79l0,1.8c0,.6,0,1.2,0,1.8s0,1.2,0,1.8,0,1.2,0,1.8l0,1.8,0,1.8c0,.6,0,1.2-.05,1.8s0,1.2-.07,1.8l0,.91-.05.9,0,.9-.05.91-.05.9,0,.9-.05.91,0,.9,0,.45,0,.45,0,.45,0,.46,0,.45,0,.45,0,.45,0,.45,0,.52c0,.18,0,.35,0,.53l0,.52c0,.18,0,.35,0,.53l0,.53c0,.18,0,.35,0,.53s0,.36,0,.54,0,.36,0,.54c0,.37,0,.73,0,1.1s0,.74,0,1.12,0,.75.06,1.13.07.76.11,1.16.09.78.16,1.18.13.81.22,1.23.18.84.29,1.27.24.87.38,1.32c.08.22.16.45.25.68s.17.47.27.7.2.48.32.72.23.49.36.73.28.5.43.75.33.5.51.76.38.5.59.76.45.51.69.77l.38.37.41.37.44.35.46.34c.16.11.32.22.49.32l.51.3.53.27a5.55,5.55,0,0,0,.56.24l.56.22.57.18.57.14.57.12.57.09.56.05a5.25,5.25,0,0,0,.56,0H229l1-.07c.33,0,.65-.08,1-.14s.6-.12.89-.19.57-.15.83-.23l.78-.27.73-.3.68-.32.63-.32.61-.34c.2-.11.39-.23.58-.35s.37-.23.55-.35l.53-.36.5-.37.49-.37.47-.37.46-.38c.3-.25.58-.51.87-.76s.56-.52.82-.78.54-.51.79-.77l.76-.79.72-.79c.23-.27.47-.53.69-.8l.67-.81.65-.81c.43-.54.84-1.08,1.24-1.63s.8-1.1,1.18-1.65l1.13-1.66c.36-.56.72-1.11,1.07-1.67s.7-1.12,1-1.68l1-1.69,1-1.7c.32-.57.63-1.14.94-1.71.61-1.14,1.2-2.28,1.78-3.43s1.15-2.3,1.7-3.46,1.09-2.32,1.61-3.48,1-2.33,1.54-3.5,1-2.34,1.46-3.51.94-2.36,1.4-3.54.9-2.36,1.33-3.54.87-2.38,1.29-3.56c.2-.6.41-1.2.61-1.79l.6-1.8c.2-.59.39-1.19.59-1.79l.57-1.79.57-1.8c.18-.6.37-1.2.55-1.8s.37-1.2.55-1.81.36-1.2.53-1.8.33-1.12.5-1.67.35-1.1.53-1.64.37-1.08.57-1.61.41-1.06.62-1.58.44-1,.67-1.54.47-1,.72-1.5.51-1,.78-1.45.55-1,.84-1.42.58-.92.88-1.36.62-.88.95-1.3.66-.83,1-1.23.71-.77,1.07-1.13.75-.71,1.14-1,.78-.64,1.19-.93a14.83,14.83,0,0,1,1.25-.81c.42-.24.86-.47,1.3-.67a11.17,11.17,0,0,1,1.35-.54,11.9,11.9,0,0,1,2.82-.57,11.87,11.87,0,0,1,1.46,0,12.3,12.3,0,0,1,1.48.12,13,13,0,0,1,1.49.28,14.62,14.62,0,0,1,1.49.43C295.49,860.66,296,860.85,296.48,861.07Z" transform="translate(-138.23 -720.89)"/><path class="cls-2" d="M385.23,750.2c-.2-.63-.41-1.27-.64-1.91s-.47-1.27-.73-1.9-.53-1.26-.82-1.88-.59-1.24-.91-1.86-.65-1.22-1-1.82-.72-1.19-1.11-1.78-.79-1.16-1.22-1.73-.86-1.12-1.32-1.67-.93-1.08-1.43-1.6-1-1-1.54-1.52-1.09-1-1.66-1.42-1.15-.89-1.75-1.31-1.22-.82-1.85-1.2-1.27-.73-1.92-1.07-1.33-.63-2-.92-1.37-.53-2.07-.76-1.4-.45-2.11-.63-1.43-.33-2.15-.46-1.43-.23-2.15-.3-1.44-.13-2.16-.15-1.44,0-2.16,0-1.43.07-2.13.14-1.41.16-2.11.27-1.38.24-2.06.39-1.36.31-2,.5-1.32.39-2,.62-1.29.46-1.92.72-1.24.52-1.86.81-1.21.58-1.8.89-1.17.64-1.75,1-1.13.68-1.69,1-1.1.72-1.63,1.1-1.09.79-1.6,1.19-1,.78-1.5,1.18l-1.42,1.16-1.36,1.16-1.32,1.16-1.3,1.14c-.44.38-.87.77-1.31,1.14L320.44,741l-1.31,1.14-1.32,1.12-1.31,1.11-1.32,1.11-1.32,1.09-1.32,1.08-1.33,1.08-1.32,1.06c-.89.7-1.78,1.39-2.68,2.07s-1.8,1.35-2.71,2-1.84,1.29-2.77,1.9-1.86,1.21-2.81,1.78-1.9,1.11-2.86,1.63-1.94,1-2.92,1.45-2,.87-3,1.25-2,.71-3,1c-.51.14-1,.27-1.54.39s-1,.22-1.54.3-1,.16-1.55.22-1,.1-1.56.13-1,0-1.55,0-1,0-1.55-.08-1-.1-1.55-.18-1-.19-1.53-.31-1-.23-1.53-.38-1-.32-1.5-.51-1-.39-1.47-.61-1-.47-1.44-.72-.95-.53-1.42-.81-.92-.58-1.38-.89l-1.35-1c-.44-.33-.88-.67-1.31-1h0a1.84,1.84,0,0,0-.25-.17,1.39,1.39,0,0,0-.28-.12l-.28-.07-.3,0-.29,0-.29.08-.27.14-.24.19a1.43,1.43,0,0,0-.23.26,2.61,2.61,0,0,0-.17.28,1.86,1.86,0,0,0-.1.31,1.17,1.17,0,0,0,0,.32,1.82,1.82,0,0,0,0,.33c0,.1,0,.21.08.31a2.09,2.09,0,0,0,.14.3,1.86,1.86,0,0,0,.21.28c.41.44.83.88,1.27,1.31s.88.85,1.35,1.26.93.82,1.42,1.2,1,.77,1.5,1.13,1,.71,1.57,1,1.09.64,1.65.94,1.13.57,1.72.82,1.19.5,1.8.71,1.22.41,1.85.59,1.25.31,1.88.44,1.27.22,1.92.3,1.28.14,1.93.17,1.29.06,1.93.06,1.29,0,1.94-.07,1.28-.1,1.91-.17,1.27-.17,1.9-.27q1.89-.35,3.72-.84c1.22-.32,2.41-.7,3.59-1.11s2.33-.86,3.46-1.34,2.26-1,3.36-1.54,2.19-1.1,3.26-1.69,2.13-1.19,3.17-1.81,2.08-1.26,3.1-1.9,2-1.28,3-1.93l1.48-1,1.47-1c.49-.34,1-.68,1.46-1l1.45-1,1.43-1L324,751l1.41-1.06,1.41-1.06,1.4-1,1.4-1.06,1.4-1.07c.46-.36.93-.71,1.39-1l1.37-1,1.34-1,1.31-.9c.43-.28.85-.55,1.27-.8s.87-.52,1.32-.76.89-.48,1.33-.7.9-.44,1.35-.64.91-.4,1.37-.58.91-.35,1.37-.51.91-.31,1.37-.44.93-.25,1.39-.36.92-.2,1.38-.28.92-.14,1.38-.19.91-.08,1.37-.1.9,0,1.35,0,.9,0,1.34.07.88.09,1.31.16.87.14,1.29.24.84.21,1.25.34.82.27,1.22.43a17.13,17.13,0,0,1,2.33,1.1,19.06,19.06,0,0,1,2.14,1.44,21.41,21.41,0,0,1,3.67,3.77,25.65,25.65,0,0,1,1.54,2.26,26.55,26.55,0,0,1,1.33,2.47c.41.85.79,1.74,1.13,2.64s.64,1.84.91,2.79.51,1.93.71,2.91.37,2,.51,3,.24,2,.32,3.07.12,2.06.15,3.11,0,2.1,0,3.15-.07,2.12-.15,3.18-.16,2.13-.27,3.2-.24,2.13-.39,3.19c-.08.53-.17,1.07-.26,1.6s-.19,1.07-.29,1.6l-.3,1.6-.33,1.6c-.11.53-.22,1.06-.34,1.6s-.24,1.06-.37,1.59l-.39,1.6c-.13.53-.27,1.06-.41,1.59s-.29,1.09-.44,1.64l-.45,1.66c-.15.55-.3,1.1-.46,1.66s-.3,1.11-.46,1.67-.31,1.11-.47,1.67-.31,1.11-.47,1.67l-.48,1.67c-.16.55-.31,1.1-.47,1.66l-.63,2.11-.63,2.12-.63,2.12-.63,2.12-.63,2.11-.63,2.12-.62,2.12-.63,2.12.2-.07.2-.07.21-.07.2-.07.2-.07.2-.07.21-.07.2-.07.59-.25.59-.24.59-.25.59-.25.59-.25.59-.25.59-.25.59-.25,1.45-.61,1.45-.61,1.44-.63,1.44-.64,1.44-.65,1.43-.65L378,815l1.43-.67.19-.65.18-.65.19-.65.19-.66.19-.65.18-.65.19-.65.19-.65c.16-.57.32-1.14.47-1.7s.32-1.13.47-1.7.31-1.13.46-1.69.31-1.13.46-1.7.31-1.13.46-1.7.3-1.14.46-1.71l.45-1.72.45-1.74c.16-.59.31-1.19.45-1.79s.29-1.2.42-1.8.26-1.21.38-1.82.24-1.21.35-1.82l.33-1.84c.1-.61.2-1.22.29-1.84s.19-1.23.27-1.84.17-1.24.25-1.86c.14-1.24.25-2.49.35-3.74s.17-2.51.22-3.78.08-2.54.07-3.81,0-2.55-.1-3.84-.16-2.56-.3-3.85-.31-2.57-.52-3.86-.47-2.58-.78-3.86S385.63,751.49,385.23,750.2Z" transform="translate(-138.23 -720.89)"/><path class="cls-2" d="M215.68,822.32c-.42-1-.83-2.08-1.25-3.11s-.83-2.06-1.25-3.08-.83-2-1.24-3.08l-1.23-3c-.41-1-.81-2-1.21-3l-1.19-3c-.39-1-.77-2-1.15-3s-.76-2-1.12-3-.82-2.25-1.22-3.38-.78-2.25-1.16-3.38-.74-2.27-1.09-3.4-.7-2.27-1-3.4-.64-2.28-.93-3.41-.58-2.27-.84-3.41-.5-2.27-.73-3.41-.43-2.27-.61-3.4-.33-2.26-.47-3.39-.24-2.25-.32-3.38-.14-2.24-.17-3.35,0-2.2,0-3.29.12-2.15.23-3.21.27-2.08.47-3.09a28.22,28.22,0,0,1,.72-3,27.73,27.73,0,0,1,1-2.78c.2-.44.4-.87.62-1.29s.45-.84.69-1.23.5-.79.77-1.16.55-.74.85-1.09.6-.69.92-1,.65-.64,1-.94.71-.59,1.08-.87.75-.53,1.15-.78.8-.49,1.22-.71.85-.43,1.29-.62.9-.38,1.36-.54.93-.33,1.41-.47,1-.27,1.47-.38,1-.23,1.51-.32,1-.17,1.55-.24,1-.13,1.58-.17c1.07-.09,2.15-.13,3.24-.13s2.19.05,3.3.13,2.22.21,3.33.37,2.23.35,3.35.58,2.24.49,3.35.78,2.23.61,3.34,1,2.21.72,3.3,1.12,2.18.83,3.26,1.27l1.62.68,1.61.71c.54.25,1.07.49,1.6.75s1.06.51,1.59.78l1.57.81c.52.28,1,.56,1.55.85l1.55.87c.51.3,1,.6,1.52.91l1.57,1,1.62,1c.55.33,1.11.66,1.68,1s1.15.63,1.73.94,1.18.61,1.77.9,1.21.57,1.82.84,1.23.52,1.85.76,1.26.46,1.89.67,1.28.4,1.93.58,1.32.34,2,.48,1.35.27,2,.37,1.37.18,2.06.23,1.39.08,2.09.08,1.39,0,2.09-.09,1.39-.16,2.08-.29a19,19,0,0,0,2.08-.49c.68-.21,1.35-.45,2-.72a19.61,19.61,0,0,0,1.9-.92,20.26,20.26,0,0,0,1.78-1.1,19.83,19.83,0,0,0,1.64-1.26c.52-.45,1-.93,1.5-1.43a20.16,20.16,0,0,0,1.34-1.57,18.51,18.51,0,0,0,1.18-1.71,18.08,18.08,0,0,0,1-1.83,1.62,1.62,0,0,0,.11-.28,1,1,0,0,0,.05-.3,1.5,1.5,0,0,0,0-.3,1.47,1.47,0,0,0-.05-.29,1.33,1.33,0,0,0-.1-.28,1.57,1.57,0,0,0-.35-.49,1.5,1.5,0,0,0-.25-.19,1.46,1.46,0,0,0-.3-.16,1.68,1.68,0,0,0-.32-.09,1.73,1.73,0,0,0-.32,0,1.65,1.65,0,0,0-.32,0,1.58,1.58,0,0,0-.31.09l-.28.16a1.71,1.71,0,0,0-.26.21,1.33,1.33,0,0,0-.21.26l0,0v.05l0,0v0l0,0v0c-.3.45-.62.89-1,1.31a15.91,15.91,0,0,1-1.11,1.21,12.75,12.75,0,0,1-1.22,1.1,15.54,15.54,0,0,1-1.32,1c-.46.3-.93.58-1.41.83a14.16,14.16,0,0,1-1.48.69,16,16,0,0,1-1.52.51,14.1,14.1,0,0,1-1.54.33c-.53.09-1.05.16-1.58.2s-1.06.06-1.6,0-1.07,0-1.6-.1-1.07-.13-1.61-.23-1.07-.22-1.6-.36-1.06-.29-1.59-.46-1.06-.36-1.58-.56-1-.42-1.55-.65l-.77-.35-.76-.38-.76-.39-.75-.42-.75-.42-.74-.44-.74-.44c-.25-.15-.5-.3-.74-.46l-.74-.48-.72-.49-.7-.49-.71-.5-.7-.52-.73-.53-.75-.56-.79-.59-1.57-1.12c-.53-.37-1.07-.74-1.6-1.09l-1.62-1.07-1.65-1-1.66-1-1.69-1-1.71-.93c-.58-.31-1.15-.61-1.73-.9-1.17-.57-2.35-1.13-3.55-1.66s-2.4-1-3.63-1.51-2.46-.93-3.72-1.35-2.52-.81-3.81-1.16-2.59-.67-3.9-.94-2.65-.51-4-.69-2.7-.33-4.08-.43-2.77-.13-4.18-.12c-.7,0-1.41,0-2.12.08s-1.42.12-2.13.2-1.43.2-2.15.32-1.43.28-2.15.45-1.42.37-2.13.59-1.42.47-2.12.74-1.4.56-2.09.88-1.37.67-2.05,1-1.34.78-2,1.21-1.27.89-1.88,1.37-1.2,1-1.77,1.52-1.12,1.08-1.65,1.65-1,1.16-1.52,1.77-.94,1.22-1.38,1.86-.84,1.28-1.22,1.94-.74,1.33-1.07,2a41.84,41.84,0,0,0-1.72,4.15,42.37,42.37,0,0,0-1.26,4.17q-.51,2.08-.84,4.17c-.21,1.39-.37,2.78-.48,4.16s-.16,2.77-.17,4.14,0,2.73.09,4.08.16,2.7.28,4,.27,2.64.43,3.94.38,2.62.6,3.91.46,2.59.72,3.87.53,2.55.82,3.81.6,2.52.92,3.77.66,2.5,1,3.74.71,2.47,1.08,3.69.76,2.45,1.15,3.66.79,2.43,1.2,3.63c.16.49.33,1,.5,1.47s.34,1,.52,1.46.34,1,.52,1.44.35,1,.53,1.45l.54,1.44.54,1.43c.19.47.37.95.55,1.42s.37,1,.55,1.43l1.6.74,1.6.73,1.6.72,1.6.71,1.61.71,1.62.69,1.61.68,1.62.66.79.31.78.3.79.3.79.3.79.29.79.29.79.29Z" transform="translate(-138.23 -720.89)"/><path class="cls-2" d="M138.23,778q2.15,1.34,4.31,2.63c1.45.87,2.9,1.71,4.35,2.55s2.93,1.65,4.4,2.45,2.94,1.59,4.42,2.37,3,1.53,4.47,2.28,3,1.48,4.5,2.2,3,1.43,4.53,2.12,3,1.38,4.56,2.05,3,1.35,4.56,2,3.07,1.3,4.6,1.92,3.08,1.24,4.63,1.84,3.1,1.18,4.66,1.75,3.11,1.13,4.68,1.68,3.13,1.08,4.7,1.6,3.14,1,4.72,1.52,3.15,1,4.73,1.46q4.75,1.39,9.54,2.65c3.19.82,6.39,1.6,9.6,2.32s6.44,1.38,9.67,2,6.48,1.16,9.72,1.64,6.51.91,9.77,1.28,6.52.67,9.79.9,6.54.42,9.82.52,6.55.16,9.82.13l1.23,0h6.15l1.22,0,1.23-.06,1.23-.07,1.22-.07,1.23-.07,1.23-.06,1.22-.07,1.23-.07,1.23-.07,1.23-.07,2.44-.25,2.45-.25,2.44-.25,2.45-.26,2.44-.29,2.44-.32,2.43-.36c.81-.12,1.62-.26,2.43-.41l1.21-.19,1.22-.19,1.22-.17,1.22-.18,1.22-.19,1.21-.2,1.21-.23,1.21-.25,1.2-.26,1.21-.25,1.2-.26,1.21-.26,1.21-.25,1.2-.26,1.21-.26,1.2-.25,1.21-.25,1.2-.29,1.2-.31,1.19-.32,1.19-.34,1.19-.33c.39-.12.79-.22,1.19-.33l1.19-.31,1.2-.32,1.2-.3,1.2-.31,1.19-.31,1.2-.31,1.19-.34,1.18-.36,1.18-.4q4.72-1.47,9.42-3.08t9.34-3.38q4.65-1.75,9.26-3.65t9.18-3.92q4.58-2,9.11-4.16t9-4.4q4.5-2.25,9-4.6T439.6,778q-3.9,3.24-7.93,6.31t-8.2,6q-4.16,2.91-8.45,5.65t-8.69,5.32q-4.4,2.57-8.91,5t-9.12,4.6q-4.62,2.22-9.33,4.25t-9.5,3.86c-3.2,1.23-6.42,2.37-9.68,3.45s-6.53,2.08-9.84,3-6.63,1.78-10,2.57-6.72,1.49-10.1,2.12-6.78,1.18-10.18,1.66-6.83.88-10.26,1.21-6.87.56-10.31.73-6.89.25-10.33.25l-5.17-.09c-1.72-.05-3.44-.11-5.16-.19s-3.44-.18-5.16-.29-3.43-.25-5.14-.39-3.43-.32-5.14-.51-3.42-.39-5.13-.61-3.41-.47-5.11-.73-3.39-.54-5.09-.85-3.37-.66-5-1-3.36-.72-5-1.11-3.35-.78-5-1.2-3.33-.85-5-1.3-3.3-.92-4.94-1.41-3.28-1-4.92-1.52-3.25-1.07-4.87-1.63-3.22-1.15-4.82-1.76-3.21-1.2-4.8-1.82-3.18-1.27-4.75-1.93-3.15-1.34-4.71-2-3.11-1.41-4.65-2.14-3.08-1.48-4.61-2.24-3-1.54-4.55-2.33-3-1.61-4.49-2.43-3-1.67-4.44-2.52-2.92-1.75-4.37-2.64-2.88-1.8-4.31-2.72-2.85-1.86-4.26-2.81-2.79-1.92-4.17-2.91-2.75-2-4.1-3-2.68-2.07-4-3.14-2.61-2.16-3.88-3.27S139.46,779.12,138.23,778Z" transform="translate(-138.23 -720.89)"/><path class="cls-2" d="M215.83,787c1.51.45,3,.89,4.54,1.32s3,.83,4.54,1.23,3,.77,4.55,1.13,3,.71,4.55,1.05,3,.65,4.55,1,3,.59,4.55.87,3,.55,4.56.8,3.05.5,4.57.73l4.57.62c1.52.2,3.05.39,4.57.56s3.05.34,4.58.48,3.05.29,4.58.4,3,.23,4.58.31,3.06.16,4.59.21,3.05.08,4.58.1,3.06,0,4.59,0,3.05,0,4.58-.08,3.05-.08,4.58-.13,3.06-.13,4.58-.21,3.06-.18,4.58-.29,3.06-.24,4.58-.38,3.05-.31,4.57-.49,3-.37,4.57-.59,3-.46,4.55-.72c.77-.1,1.53-.2,2.29-.32s1.53-.24,2.29-.37l2.27-.41,2.27-.44,2.27-.47,2.27-.48,2.28-.48,2.29-.47,1.15-.2c.39-.07.77-.15,1.15-.24s.76-.17,1.13-.27l1.13-.29,1.13-.31,1.12-.31,1.14-.31,1.13-.28,1.14-.3,1.14-.28,1.15-.29,1.15-.28,1.15-.28,1.16-.27,1.16-.26L362,787l-1,.59-1,.58-1,.58-1,.57-1,.57-1.05.56-1,.56-1.06.55-1.06.55-1.05.55-1.07.55-1.06.54-1.08.52-1.08.5-1.1.47-1.11.43-1.12.42-1.11.43-1.12.43-1.12.42-1.12.43-1.11.43-1.12.42-1.12.43c-.37.16-.74.3-1.12.44s-.75.26-1.13.39l-1.15.34-1.15.32-1.16.3-1.16.3-1.16.3-1.15.33c-1.54.44-3.09.84-4.65,1.22s-3.12.71-4.7,1-3.14.6-4.73.86-3.17.49-4.76.69-3.19.38-4.79.53-3.19.28-4.8.38-3.2.18-4.81.23-3.21.09-4.81.1l-1.21,0-1.2,0-1.21,0-1.2,0-1.2,0-1.21,0-1.2,0-1.2-.08-1.2-.1-1.2-.1-1.2-.1-1.2-.1-1.2-.1-1.19-.11-1.2-.12-1.2-.12-2.38-.37-2.37-.38-2.37-.4-2.37-.42c-.79-.14-1.57-.29-2.36-.45s-1.56-.32-2.34-.5-1.56-.36-2.34-.55-1.55-.39-2.32-.61c-1.55-.4-3.09-.83-4.62-1.28s-3.06-.92-4.58-1.43-3-1-4.52-1.58-3-1.15-4.45-1.76-2.93-1.26-4.37-1.94-2.86-1.39-4.27-2.14-2.79-1.52-4.15-2.33S217.15,787.85,215.83,787Z" transform="translate(-138.23 -720.89)"/><path class="cls-3" d="M487.59,786v-65.1h28.46a40.32,40.32,0,0,1,18.6,4.09,30.72,30.72,0,0,1,12.46,11.35,35,35,0,0,1,0,34.17,30.62,30.62,0,0,1-12.46,11.4,40.45,40.45,0,0,1-18.6,4.09Zm12.09-10.23h15.81A27.06,27.06,0,0,0,528.18,773a20.14,20.14,0,0,0,8.28-7.81,25,25,0,0,0,0-23.49,20.22,20.22,0,0,0-8.28-7.76,27.06,27.06,0,0,0-12.69-2.79H499.68Z" transform="translate(-138.23 -720.89)"/><path class="cls-3" d="M564.41,786v-65.1h26.78A35.85,35.85,0,0,1,606,723.68a21.49,21.49,0,0,1,9.54,8,24.48,24.48,0,0,1,0,24.69,21.36,21.36,0,0,1-9.54,7.9A36.36,36.36,0,0,1,591.19,767H571.1l5.4-5.49V786Zm12.09-23.16-5.4-5.77h19.53q8,0,12-3.44t4-9.58q0-6.22-4-9.57t-12-3.35H571.1l5.4-6ZM607,786l-16.46-23.62h12.93L620,786Z" transform="translate(-138.23 -720.89)"/><path class="cls-3" d="M635,786.64a7.87,7.87,0,0,1-5.39-13.35,8,8,0,0,1,10.79,0,7.77,7.77,0,0,1-5.4,13.35Z" transform="translate(-138.23 -720.89)"/><path class="cls-3" d="M486.41,861.49v-51.8h9.92l22.05,36.55h-5.25l21.68-36.55h9.84l.15,51.8H533.55l-.07-34.56h2.07L518.23,856h-5.4l-17.68-29.08h2.51v34.56Z" transform="translate(-138.23 -720.89)"/><path class="cls-3" d="M550.27,861.49l23.09-51.8H585.2l23.16,51.8H595.79l-18.95-45.74h4.74l-19,45.74Zm11.55-11.1,3.18-9.11h26.64l3.26,9.11Z" transform="translate(-138.23 -720.89)"/><path class="cls-3" d="M613.77,861.49v-51.8h22.42a29.22,29.22,0,0,1,12,2.25,17.66,17.66,0,0,1,7.77,6.48,18.11,18.11,0,0,1,2.73,10.06,17.82,17.82,0,0,1-2.73,10,17.51,17.51,0,0,1-7.77,6.4,29.57,29.57,0,0,1-12,2.22H620.43l5.32-5.26v19.69Zm12-18.36-5.32-5.62h15.09q5.55,0,8.29-2.4a9.43,9.43,0,0,0,0-13.29q-2.74-2.37-8.29-2.37H620.43l5.32-5.69Zm21,18.36-13-18.8h12.8l13.1,18.8Z" transform="translate(-138.23 -720.89)"/><path class="cls-3" d="M693.31,862.37a31.48,31.48,0,0,1-11.35-2,27,27,0,0,1-9-5.63,25.47,25.47,0,0,1-5.92-8.51,28,28,0,0,1,0-21.31,25.25,25.25,0,0,1,6-8.51,27.23,27.23,0,0,1,9-5.62,32.75,32.75,0,0,1,22.54,0,27,27,0,0,1,9,5.62,27.07,27.07,0,0,1,6,29.86,25.61,25.61,0,0,1-6,8.51,27.61,27.61,0,0,1-9,5.59A30.77,30.77,0,0,1,693.31,862.37Zm-.07-10.21a16.87,16.87,0,0,0,6.4-1.18,15.39,15.39,0,0,0,5.15-3.41,15.64,15.64,0,0,0,3.44-5.25,19.2,19.2,0,0,0,0-13.47,15.88,15.88,0,0,0-3.41-5.25,14.87,14.87,0,0,0-5.14-3.41,17.36,17.36,0,0,0-6.44-1.18,17.07,17.07,0,0,0-6.4,1.18,15.47,15.47,0,0,0-8.58,8.66,19.09,19.09,0,0,0,0,13.43,15.57,15.57,0,0,0,3.4,5.29A14.87,14.87,0,0,0,686.8,851,17.19,17.19,0,0,0,693.24,852.16Z" transform="translate(-138.23 -720.89)"/><path class="cls-3" d="M753.62,862.37q-11,0-17.24-6.14t-6.21-17.54v-29h12v28.56q0,7.39,3,10.66t8.51,3.25q5.47,0,8.51-3.25t3-10.66V809.69h11.84v29q0,11.4-6.21,17.54T753.62,862.37Z" transform="translate(-138.23 -720.89)"/><path class="cls-3" d="M781,861.49l23.09-51.8h11.84l23.16,51.8H826.51l-18.94-45.74h4.74l-19,45.74Zm11.55-11.1,3.18-9.11h26.64l3.26,9.11Z" transform="translate(-138.23 -720.89)"/><path class="cls-3" d="M844.5,861.49v-51.8h9.91L885,847h-4.81V809.69H892v51.8h-9.84l-30.63-37.3h4.81v37.3Z" transform="translate(-138.23 -720.89)"/><path class="cls-3" d="M916.2,851.87h28.2v9.62H904.29v-51.8h39.14v9.62H916.2Zm-.89-21.32h24.94v9.33H915.31Z" transform="translate(-138.23 -720.89)"/><path class="cls-3" d="M968.07,861.49l23.09-51.8H1003l23.16,51.8h-12.58l-18.94-45.74h4.74l-19,45.74Zm11.55-11.1,3.18-9.11h26.64l3.26,9.11Z" transform="translate(-138.23 -720.89)"/><path class="cls-3" d="M1028.24,861.49v-7.77l32-38.63,1.48,4.36h-32.93v-9.76h43.58v7.77l-32,38.62-1.48-4.36h34.55v9.77Z" transform="translate(-138.23 -720.89)"/><path class="cls-3" d="M1077.89,861.49v-7.77l32-38.63,1.48,4.36h-32.93v-9.76h43.59v7.77l-32,38.62-1.48-4.36h34.56v9.77Z" transform="translate(-138.23 -720.89)"/><path class="cls-3" d="M1124.06,861.49l23.09-51.8H1159l23.16,51.8h-12.58l-18.94-45.74h4.74l-19,45.74Zm11.55-11.1,3.18-9.11h26.64l3.26,9.11Z" transform="translate(-138.23 -720.89)"/><path class="cls-3" d="M1187.56,861.49v-51.8h25.3q9.78,0,14.69,3.7a11.62,11.62,0,0,1,4.92,9.76,12.45,12.45,0,0,1-2,7.07,13.17,13.17,0,0,1-5.48,4.63,18.72,18.72,0,0,1-8,1.62l1.4-3a22.11,22.11,0,0,1,8.66,1.59,13,13,0,0,1,5.88,4.7,13.22,13.22,0,0,1,2.11,7.62,12.05,12.05,0,0,1-5.25,10.4q-5.25,3.74-15.47,3.74Zm11.91-9h14c3.1,0,5.46-.51,7.06-1.52a5.3,5.3,0,0,0,2.41-4.85,5.39,5.39,0,0,0-2.41-4.84c-1.6-1.06-4-1.59-7.06-1.59h-14.88v-8.74h12.8a12.31,12.31,0,0,0,6.7-1.51,5.16,5.16,0,0,0,2.33-4.63,5.08,5.08,0,0,0-2.33-4.55,12.31,12.31,0,0,0-6.7-1.52h-11.91Z" transform="translate(-138.23 -720.89)"/><path class="cls-3" d="M1244.16,861.49v-51.8h12v51.8Z" transform="translate(-138.23 -720.89)"/><path class="cls-1" d="M487.54,949.89V903H508a29.1,29.1,0,0,1,13.4,3,22.17,22.17,0,0,1,9,8.18,25.21,25.21,0,0,1,0,24.62,22.1,22.1,0,0,1-9,8.21,29.1,29.1,0,0,1-13.4,2.94Zm8.71-7.37h11.39a19.53,19.53,0,0,0,9.14-2,14.44,14.44,0,0,0,6-5.62,18,18,0,0,0,0-16.92,14.44,14.44,0,0,0-6-5.59,19.41,19.41,0,0,0-9.14-2H496.25Z" transform="translate(-138.23 -720.89)"/><path class="cls-1" d="M558.89,950.36A21.86,21.86,0,0,1,548.47,948a17.27,17.27,0,0,1-6.9-6.54,18.27,18.27,0,0,1-2.45-9.44,18.64,18.64,0,0,1,2.38-9.48,17.09,17.09,0,0,1,6.57-6.47,19.23,19.23,0,0,1,9.55-2.35,18.78,18.78,0,0,1,9.31,2.28,16.56,16.56,0,0,1,6.43,6.43,19.52,19.52,0,0,1,2.35,9.79c0,.35,0,.76,0,1.2s0,.87-.1,1.28H545.76v-5.57h25.39l-3.28,1.75a10.35,10.35,0,0,0-1.27-5.43,10,10,0,0,0-3.66-3.69,10.43,10.43,0,0,0-5.32-1.34,10.6,10.6,0,0,0-5.4,1.34,9.56,9.56,0,0,0-3.61,3.72,11.36,11.36,0,0,0-1.31,5.6v1.34a10.94,10.94,0,0,0,1.47,5.69,9.74,9.74,0,0,0,4.16,3.82,13.49,13.49,0,0,0,6.16,1.34,14.8,14.8,0,0,0,5.43-.94,11.45,11.45,0,0,0,4.29-2.94l4.48,5.15a15.68,15.68,0,0,1-6.06,4.33A21.76,21.76,0,0,1,558.89,950.36Z" transform="translate(-138.23 -720.89)"/><path class="cls-1" d="M604.05,913.71a17,17,0,0,1,7.67,1.68,12.35,12.35,0,0,1,5.33,5.12,18.05,18.05,0,0,1,1.94,8.88v20.5h-8.38V930.46c0-3.17-.75-5.53-2.24-7.1A8.29,8.29,0,0,0,602.1,921a11,11,0,0,0-5.22,1.2,8.31,8.31,0,0,0-3.52,3.59,12.82,12.82,0,0,0-1.24,6v18.09h-8.37V914.12h8v9.64l-1.41-2.94a12.67,12.67,0,0,1,5.46-5.26A17.85,17.85,0,0,1,604.05,913.71Z" transform="translate(-138.23 -720.89)"/><path class="cls-1" d="M624.88,921.08v-6.7h23.86v6.7Zm18.23,29.28q-5.9,0-9.11-3t-3.22-9V906.21h8.38V938.1a5.61,5.61,0,0,0,1.3,4,4.76,4.76,0,0,0,3.65,1.4A7.36,7.36,0,0,0,648.8,942l2.35,6a9.7,9.7,0,0,1-3.62,1.81A16.31,16.31,0,0,1,643.11,950.36Z" transform="translate(-138.23 -720.89)"/><path class="cls-1" d="M662.27,908.22a5.28,5.28,0,0,1-3.85-1.47,5,5,0,0,1,0-7.14,5.34,5.34,0,0,1,3.85-1.44,5.51,5.51,0,0,1,3.85,1.37,4.47,4.47,0,0,1,1.51,3.45,5.11,5.11,0,0,1-1.47,3.72A5.19,5.19,0,0,1,662.27,908.22Zm-4.22,41.67V914.12h8.37v35.77Z" transform="translate(-138.23 -720.89)"/><path class="cls-1" d="M688.47,950.36a31.3,31.3,0,0,1-8.61-1.17,22.06,22.06,0,0,1-6.54-2.85l3.22-6.36a22.84,22.84,0,0,0,5.76,2.54,23.27,23.27,0,0,0,6.7,1q4,0,5.73-1.07a3.27,3.27,0,0,0,1.78-2.88,2.52,2.52,0,0,0-1.21-2.25,9.44,9.44,0,0,0-3.15-1.17c-1.29-.27-2.73-.51-4.32-.74s-3.17-.52-4.76-.9a16.46,16.46,0,0,1-4.32-1.68,9,9,0,0,1-3.15-3,9.08,9.08,0,0,1-1.2-5,9.41,9.41,0,0,1,1.94-5.93,12.39,12.39,0,0,1,5.46-3.88,22.84,22.84,0,0,1,8.34-1.38,33.88,33.88,0,0,1,7.3.81,19.44,19.44,0,0,1,6.1,2.28l-3.21,6.36a17,17,0,0,0-5.13-2.11,23.72,23.72,0,0,0-5.13-.57,11,11,0,0,0-5.66,1.14,3.33,3.33,0,0,0-1.84,2.88,2.69,2.69,0,0,0,1.21,2.41,9.61,9.61,0,0,0,3.15,1.28,39.82,39.82,0,0,0,4.32.77,38.48,38.48,0,0,1,4.72.9,20,20,0,0,1,4.32,1.64,8.35,8.35,0,0,1,3.18,2.92,8.86,8.86,0,0,1,1.21,4.89,9.06,9.06,0,0,1-2,5.83,12.65,12.65,0,0,1-5.59,3.85A24.25,24.25,0,0,1,688.47,950.36Z" transform="translate(-138.23 -720.89)"/><path class="cls-1" d="M707.16,921.08v-6.7H731v6.7Zm18.22,29.28q-5.89,0-9.11-3t-3.21-9V906.21h8.37V938.1a5.61,5.61,0,0,0,1.31,4,4.75,4.75,0,0,0,3.65,1.4,7.38,7.38,0,0,0,4.69-1.47l2.34,6a9.73,9.73,0,0,1-3.61,1.81A16.39,16.39,0,0,1,725.38,950.36Z" transform="translate(-138.23 -720.89)"/><path class="cls-1" d="M781.33,950.56a27.4,27.4,0,0,1-10-1.77,23.7,23.7,0,0,1-8-5,22.74,22.74,0,0,1-5.25-7.67,25.68,25.68,0,0,1,0-19.29,22.56,22.56,0,0,1,5.29-7.68,24.19,24.19,0,0,1,8-5,28.9,28.9,0,0,1,20.5.2,20.88,20.88,0,0,1,8,5.86l-5.63,5.3A16.5,16.5,0,0,0,781.8,910a18,18,0,0,0-6.74,1.21,15.56,15.56,0,0,0-5.29,3.42,15.32,15.32,0,0,0-3.48,5.22,18.37,18.37,0,0,0,0,13.27,15.32,15.32,0,0,0,3.48,5.22,15.56,15.56,0,0,0,5.29,3.42,18.25,18.25,0,0,0,6.74,1.21,16.84,16.84,0,0,0,6.83-1.38,16.53,16.53,0,0,0,5.69-4.18l5.63,5.36a21.52,21.52,0,0,1-8,5.82A26.93,26.93,0,0,1,781.33,950.56Z" transform="translate(-138.23 -720.89)"/><path class="cls-1" d="M807.52,949.89V900.18h8.38v49.71Z" transform="translate(-138.23 -720.89)"/><path class="cls-1" d="M831.11,908.22a5.3,5.3,0,0,1-3.86-1.47,5,5,0,0,1,0-7.14,5.37,5.37,0,0,1,3.86-1.44,5.53,5.53,0,0,1,3.85,1.37,4.5,4.5,0,0,1,1.51,3.45,5.11,5.11,0,0,1-1.48,3.72A5.17,5.17,0,0,1,831.11,908.22Zm-4.22,41.67V914.12h8.37v35.77Z" transform="translate(-138.23 -720.89)"/><path class="cls-1" d="M866.55,913.71a17,17,0,0,1,7.67,1.68,12.29,12.29,0,0,1,5.33,5.12,18.05,18.05,0,0,1,1.94,8.88v20.5h-8.38V930.46c0-3.17-.74-5.53-2.24-7.1a8.27,8.27,0,0,0-6.26-2.34,11.05,11.05,0,0,0-5.23,1.2,8.31,8.31,0,0,0-3.52,3.59,12.82,12.82,0,0,0-1.24,6v18.09h-8.37V914.12h8v9.64l-1.41-2.94a12.67,12.67,0,0,1,5.46-5.26A17.85,17.85,0,0,1,866.55,913.71Z" transform="translate(-138.23 -720.89)"/><path class="cls-1" d="M896.36,908.22a5.3,5.3,0,0,1-3.85-1.47,5,5,0,0,1,0-7.14,5.36,5.36,0,0,1,3.85-1.44,5.54,5.54,0,0,1,3.86,1.37,4.49,4.49,0,0,1,1.5,3.45,5.11,5.11,0,0,1-1.47,3.72A5.17,5.17,0,0,1,896.36,908.22Zm-4.22,41.67V914.12h8.38v35.77Z" transform="translate(-138.23 -720.89)"/><path class="cls-1" d="M927.92,950.36a20.77,20.77,0,0,1-10-2.37,17.63,17.63,0,0,1-6.86-6.54,19.28,19.28,0,0,1,0-18.92,17.39,17.39,0,0,1,6.86-6.47,21,21,0,0,1,10-2.35,19.37,19.37,0,0,1,9.21,2.12A14,14,0,0,1,943.2,922l-6.44,3.75a10.38,10.38,0,0,0-3.92-3.75,10.66,10.66,0,0,0-5-1.2,11.43,11.43,0,0,0-5.56,1.34,9.53,9.53,0,0,0-3.88,3.85,13.45,13.45,0,0,0,0,12,9.53,9.53,0,0,0,3.88,3.85,11.43,11.43,0,0,0,5.56,1.34,10.66,10.66,0,0,0,5-1.2,10.38,10.38,0,0,0,3.92-3.75L943.2,942a14.53,14.53,0,0,1-6.07,6.2A18.93,18.93,0,0,1,927.92,950.36Z" transform="translate(-138.23 -720.89)"/></svg>