<svg id="Layer_1" data-name="Layer 1" xmlns="http://www.w3.org/2000/svg" viewBox="0 0 301.37 230.17"><defs><style>.cls-1{fill:#62afe2;}.cls-2{fill:#3e7bbe;}</style></defs><path class="cls-1" d="M328.55,242.68l-.62.26-.62.26-.61.26-.62.26-.62.26-.62.26-.61.26-.62.26-.51.2-.51.21-.5.2-.51.21-.51.2-.51.2-.51.21-.51.2c-.29,1.05-.58,2.09-.86,3.15s-.56,2.1-.83,3.16-.53,2.13-.79,3.2-.5,2.13-.74,3.21-.47,2.15-.7,3.22-.44,2.16-.65,3.24-.41,2.16-.61,3.24-.37,2.17-.55,3.25-.37,2.38-.54,3.56-.34,2.37-.5,3.56-.32,2.36-.47,3.55-.29,2.36-.42,3.54-.26,2.36-.38,3.54-.24,2.36-.35,3.54-.21,2.36-.31,3.53-.19,2.35-.28,3.53l-.24,3.52-.21,3.53c-.08,1.17-.14,2.34-.21,3.52l-.18,3.51-.18,3.51c-.05,1.18-.11,2.35-.16,3.52l-.15,3.51-.15,3.5-.06,1.74L309,332l-.07,1.74-.06,1.74-.06,1.74L308.7,339l-.06,1.74-.06,1.74c0,.47,0,.93-.07,1.39s-.09.9-.16,1.34-.14.88-.23,1.29-.19.82-.3,1.21-.24.76-.38,1.11a9,9,0,0,1-.44,1,8.61,8.61,0,0,1-.49.85,5.6,5.6,0,0,1-.56.69l-.27.29c-.1.09-.19.18-.28.25l-.28.22a2.29,2.29,0,0,1-.29.18,1.59,1.59,0,0,1-.29.15l-.3.12-.32.1-.33.07-.35,0h-.37l-.4,0-.42-.06-.44-.1a4,4,0,0,1-.46-.14l-.47-.17-.48-.22-.49-.26c-.16-.1-.33-.19-.49-.3s-.33-.21-.49-.33l-.49-.36-.48-.4-.48-.43-.47-.46-.45-.48-.5-.57-.5-.59-.5-.61-.51-.62-.5-.63-.5-.64-.49-.65-.48-.64c-.63-.88-1.25-1.78-1.86-2.69s-1.19-1.85-1.76-2.79-1.14-1.9-1.68-2.87-1.08-2-1.61-2.95-1-2-1.53-3-1-2-1.47-3.06l-1.41-3.1c-.46-1-.91-2.08-1.36-3.13-.23-.53-.45-1-.67-1.58s-.45-1.05-.67-1.58l-.65-1.59c-.22-.53-.43-1.06-.64-1.6s-.43-1.06-.64-1.6-.41-1.07-.62-1.61-.41-1.07-.61-1.61l-.6-1.62c-.2-.56-.41-1.13-.62-1.69s-.44-1.13-.67-1.7-.46-1.12-.71-1.69-.5-1.12-.76-1.68-.53-1.11-.81-1.66-.58-1.1-.88-1.64-.61-1.08-.94-1.61-.66-1.06-1-1.57-.71-1-1.09-1.53-.76-1-1.16-1.5-.82-1-1.25-1.45-.89-.93-1.36-1.38-1-.87-1.47-1.28-1-.79-1.59-1.15a19.68,19.68,0,0,0-1.74-1,17.81,17.81,0,0,0-1.88-.83,10.34,10.34,0,0,0-1-.3c-.33-.09-.68-.17-1-.23s-.7-.1-1.05-.13-.71,0-1.06,0-.71,0-1.06.06-.7.09-1,.16a9.82,9.82,0,0,0-2,.65c-.32.14-.63.29-.94.46a6.91,6.91,0,0,0-.86.54q-.42.28-.81.6c-.25.21-.5.43-.74.66s-.46.47-.68.71-.42.49-.62.75-.39.51-.57.77-.35.53-.51.79a.93.93,0,0,0-.1.2,1.87,1.87,0,0,0-.07.22,1.62,1.62,0,0,0,0,.44,1.66,1.66,0,0,0,.06.21,1,1,0,0,0,.09.21,1.07,1.07,0,0,0,.13.19.81.81,0,0,0,.16.16l.21.15a.92.92,0,0,0,.23.09.69.69,0,0,0,.24.05h.24l.24-.05a.92.92,0,0,0,.23-.09,1.2,1.2,0,0,0,.21-.13,1,1,0,0,0,.18-.18h0l.53-.6.56-.56c.19-.19.38-.36.58-.53l.6-.47.63-.43c.21-.13.42-.25.64-.36l.66-.3c.23-.09.45-.16.68-.23s.45-.12.68-.16.46-.06.69-.08.45,0,.68,0,.46,0,.68.06.46.06.68.11.45.11.67.18l.66.24c.22.09.43.19.65.3a12,12,0,0,1,1.25.73,12.7,12.7,0,0,1,1.19.89c.38.32.76.66,1.12,1s.7.74,1,1.14.66.81,1,1.23.62.87.91,1.31.57.91.84,1.37.53.94.77,1.41.49,1,.72,1.46.46,1,.67,1.49.43,1,.63,1.51.39,1,.58,1.54.36,1,.53,1.57.34,1.05.51,1.58l.47,1.61c.15.54.29,1.09.44,1.64l.45,1.71c.16.57.31,1.14.47,1.7l.48,1.71c.16.57.33,1.14.49,1.7l.51,1.71c.17.56.34,1.13.52,1.7s.35,1.13.53,1.7l.54,1.7c.38,1.12.77,2.25,1.16,3.37s.81,2.25,1.23,3.37.86,2.24,1.31,3.36.91,2.22,1.39,3.33,1,2.22,1.5,3.32,1.06,2.19,1.62,3.28,1.13,2.18,1.74,3.25,1.22,2.15,1.87,3.22l.51.79.51.79.51.78.53.78.54.78.57.77.59.78.61.78c.22.28.46.55.69.83s.49.54.74.8.51.53.78.79.54.51.82.76.57.5.87.74l.91.7,1,.67c.33.21.67.42,1,.62s.7.39,1.07.58.75.35,1.13.51.79.31,1.19.45.82.26,1.25.37.85.21,1.28.29.88.14,1.33.18.91.07,1.37.08.93,0,1.39,0a13.52,13.52,0,0,0,1.41-.16,11,11,0,0,0,1.38-.3c.46-.12.91-.26,1.36-.42s.88-.34,1.31-.54.84-.42,1.25-.65.8-.48,1.18-.74.74-.54,1.09-.83.68-.59,1-.91.62-.62.91-.95a12.8,12.8,0,0,0,.83-1c.27-.33.52-.67.75-1s.46-.7.67-1.05.41-.7.6-1,.37-.72.54-1.07.32-.72.47-1.08.29-.71.42-1.07.25-.71.36-1.07.22-.72.31-1.07.19-.71.28-1.07.16-.71.23-1.06.14-.71.2-1.06.11-.7.16-1.05.09-.7.13-1.05.08-.69.11-1l.12-1.75.12-1.75L322,338l.13-1.74.12-1.75.12-1.75.12-1.75.13-1.75c.08-1.15.17-2.31.26-3.46s.17-2.31.26-3.47.19-2.31.28-3.46.19-2.3.29-3.46.19-2.3.3-3.45.2-2.3.31-3.45l.33-3.44c.12-1.15.23-2.29.35-3.43s.22-2.29.34-3.44.23-2.28.35-3.42.25-2.28.39-3.41.27-2.27.41-3.4.29-2.26.44-3.39.31-2.25.48-3.37.34-2.24.52-3.35.36-2.23.56-3.35.39-2.22.6-3.32.43-2.21.66-3.3.47-2.2.72-3.3.51-2.18.77-3.28.54-2.18.82-3.28.57-2.18.86-3.28l.9-3.29.93-3.3.37-1.27.37-1.27.36-1.27.37-1.27.36-1.27.37-1.27.36-1.27.37-1.27-.54.28-.54.28-.54.29-.54.28-.54.29-.54.28-.55.28-.55.27-.59.3-.6.3-.6.3-.59.3-.6.3-.6.3-.6.3Z" transform="translate(-99.77 -134.44)"/><path class="cls-1" d="M258,273.31c.49.22,1,.46,1.45.72s1,.55,1.42.84.93.62,1.39.95.9.68,1.35,1,.87.74,1.3,1.12.85.79,1.26,1.21.82.83,1.22,1.27.78.87,1.16,1.32.77.91,1.14,1.37l1.1,1.41c.36.48.72,1,1.06,1.46s.7,1,1,1.48.67,1,1,1.52.65,1,1,1.55.62,1.05.92,1.58.6,1.06.89,1.6h0a.86.86,0,0,0,.13.2.81.81,0,0,0,.16.16.59.59,0,0,0,.18.13l.2.1a.9.9,0,0,0,.22.06l.23,0,.23,0,.22-.07a1,1,0,0,0,.23-.12,1.49,1.49,0,0,0,.2-.15,1.39,1.39,0,0,0,.15-.19,1.13,1.13,0,0,0,.12-.21,2.09,2.09,0,0,0,.08-.23l0-.25a1.94,1.94,0,0,0,0-.24,1.82,1.82,0,0,0-.07-.25c-.46-1.16-.93-2.32-1.43-3.47s-1-2.32-1.58-3.47-1.15-2.28-1.78-3.4-1.3-2.22-2-3.3-1.49-2.13-2.3-3.14a36.48,36.48,0,0,0-2.63-2.95,35,35,0,0,0-3-2.7,37,37,0,0,0-3.4-2.41q-.45-.27-.93-.51c-.31-.17-.63-.33-.95-.48l-1-.43c-.33-.14-.67-.27-1-.39s-.69-.23-1-.33-.71-.2-1.07-.29l-1.08-.23-1.11-.17c-.37,0-.74-.08-1.12-.1s-.75,0-1.12,0-.76,0-1.14,0l-1.13.09c-.37,0-.75.09-1.12.15s-.74.13-1.11.22-.74.17-1.1.27l-1.07.34c-.72.25-1.42.53-2.09.84s-1.33.65-2,1-1.25.76-1.85,1.17-1.18.85-1.74,1.31-1.09.93-1.61,1.42-1,1-1.5,1.51-.94,1.05-1.39,1.59-.86,1.09-1.26,1.64-.81,1.13-1.19,1.7-.74,1.15-1.1,1.73-.69,1.18-1,1.77-.65,1.2-1,1.8-.59,1.21-.87,1.82-.55,1.23-.81,1.84-.5,1.22-.74,1.84-.47,1.22-.69,1.84l-.63,1.71c-.22.57-.43,1.14-.64,1.71l-.65,1.71-.66,1.7c-.22.57-.44,1.13-.67,1.7l-.67,1.69-.69,1.69c-.23.56-.46,1.12-.7,1.68-.46,1.11-.93,2.23-1.41,3.34s-1,2.22-1.45,3.33-1,2.2-1.49,3.29-1,2.19-1.54,3.27-1,2.16-1.59,3.22-1.1,2.13-1.66,3.18-1.13,2.09-1.71,3.13-1.18,2.05-1.79,3.06c-.3.5-.61,1-.92,1.5l-.93,1.49-1,1.46c-.32.48-.65,1-1,1.43s-.66.94-1,1.4-.67.92-1,1.36-.69.89-1,1.32-.7.86-1.06,1.28l-.53.61-.54.6-.55.58-.54.56c-.18.19-.36.37-.55.54s-.36.35-.54.51l-.54.48-.54.44-.15.11-.14.11-.14.11-.14.1-.14.1-.14.09-.13.09-.14.09c0-.14-.05-.3-.08-.46l-.06-.49c0-.17,0-.35,0-.53s0-.36,0-.55l0-.58c0-.19,0-.39,0-.59s0-.4,0-.61,0-.4,0-.61,0-.25,0-.38,0-.26,0-.39l0-.39,0-.4,0-.39,0-.4c0-.14,0-.27,0-.41s0-.27,0-.4l0-.47,0-.48,0-.47,0-.47,0-.48,0-.47,0-.47,0-.47.08-.95.08-1,.08-.94.09-.95.08-.94.08-.95.08-.95.08-.94c0-.63.09-1.27.13-1.9s.08-1.27.11-1.9.06-1.27.08-1.9.05-1.28.07-1.91,0-1.27.05-1.91,0-1.27,0-1.91,0-1.27,0-1.91,0-1.27.05-1.9l-.06-1.92,0-1.92c0-.64,0-1.27,0-1.91l0-1.92c0-.64,0-1.28-.05-1.92s0-1.27-.07-1.91-.07-1.28-.12-1.92-.1-1.28-.16-1.92c-.08-1.28-.17-2.56-.28-3.84s-.23-2.56-.36-3.84-.3-2.56-.46-3.83-.36-2.56-.55-3.83-.41-2.55-.64-3.82-.46-2.53-.71-3.8-.51-2.53-.79-3.79-.56-2.51-.86-3.77c-.2-.83-.41-1.66-.63-2.48s-.43-1.65-.66-2.47-.47-1.63-.71-2.45-.48-1.62-.73-2.43-.51-1.61-.77-2.41-.53-1.6-.8-2.4-.54-1.59-.82-2.39-.55-1.58-.84-2.37l-1.89-.73-1.88-.74-1.88-.76-1.87-.78-1.86-.8-1.85-.83-1.84-.84-1.82-.87-.55-.27-.54-.27-.54-.27-.54-.28-.53-.28-.54-.27-.54-.28-.54-.28.21.54.21.54c.08.18.15.36.22.54l.21.53.21.54.21.54.21.53c.06.18.13.36.2.54.44,1.13.87,2.27,1.29,3.4s.84,2.26,1.25,3.4.81,2.26,1.19,3.4.77,2.26,1.14,3.4.73,2.27,1.08,3.4.69,2.28,1,3.42.65,2.28,1,3.42.6,2.3.87,3.45.57,2.29.83,3.44.52,2.31.77,3.46.47,2.32.69,3.48.43,2.32.62,3.49.38,2.34.55,3.51.32,2.34.46,3.52.27,2.36.38,3.54.21,2.37.29,3.55c.07.59.13,1.19.18,1.78s.09,1.18.13,1.78l.09,1.78.06,1.79c0,.6,0,1.2.05,1.79s0,1.2,0,1.79l.06,1.8c0,.59.05,1.19.08,1.78s0,1.2,0,1.8l0,1.8c0,.6,0,1.2,0,1.8s0,1.2,0,1.8,0,1.2,0,1.8,0,1.2,0,1.8,0,1.2,0,1.8-.05,1.2-.07,1.81l-.05.9-.05.9,0,.91-.05.9,0,.9-.05.91,0,.9-.05.9,0,.45,0,.46,0,.45,0,.45,0,.45,0,.45,0,.46,0,.45c0,.17,0,.34,0,.52l0,.52,0,.52,0,.53c0,.18,0,.35,0,.53s0,.36,0,.54,0,.35,0,.53V342c0,.36,0,.73,0,1.1s0,.73,0,1.11,0,.75.07,1.13.06.77.1,1.16.1.78.16,1.19.14.81.22,1.22.18.84.3,1.27.23.87.38,1.32c.07.23.16.45.24.68s.18.47.28.71.2.47.31.71.24.49.37.74.27.49.43.74.32.51.5.76.38.51.6.76a9.78,9.78,0,0,0,.69.77c.12.13.25.25.38.37s.27.25.41.37.28.24.43.35l.46.34c.16.11.32.22.49.32l.51.3c.18.1.35.19.53.27l.56.25.56.21.57.18.58.15.57.11.57.09.56.06.55,0h.54c.35,0,.69,0,1-.07s.65-.08,1-.14a8.43,8.43,0,0,0,.9-.19l.83-.23c.27-.08.52-.18.77-.27l.73-.3.68-.31.64-.33.61-.34.57-.34.56-.36.52-.36c.18-.12.34-.24.51-.37l.49-.37.47-.37.45-.38c.3-.25.59-.51.87-.76l.83-.77.79-.78.75-.79c.25-.26.49-.52.72-.79s.47-.53.7-.8l.67-.8.65-.81,1.24-1.64q.6-.82,1.17-1.65c.39-.55.76-1.1,1.13-1.66s.73-1.11,1.08-1.67.69-1.12,1-1.68.67-1.13,1-1.69.65-1.13,1-1.7.63-1.14.94-1.71c.61-1.14,1.21-2.28,1.79-3.43s1.14-2.3,1.69-3.46,1.09-2.31,1.62-3.48,1-2.33,1.53-3.49,1-2.35,1.46-3.52.95-2.35,1.4-3.53.9-2.37,1.34-3.55.86-2.37,1.28-3.56c.21-.6.41-1.19.61-1.79s.41-1.19.6-1.79.4-1.2.59-1.8.39-1.19.58-1.79.38-1.2.56-1.8.37-1.2.56-1.8l.54-1.8.54-1.81c.16-.56.32-1.12.49-1.67s.35-1.1.53-1.64.38-1.08.58-1.61.4-1.06.62-1.57.43-1,.66-1.54.48-1,.72-1.5.51-1,.78-1.46.55-.95.85-1.42.57-.92.88-1.36.62-.88.95-1.3.66-.83,1-1.22.7-.78,1.07-1.14.74-.71,1.13-1,.79-.64,1.19-.93.83-.55,1.25-.8a13.56,13.56,0,0,1,1.31-.68c.44-.2.89-.38,1.34-.54a12.12,12.12,0,0,1,2.83-.57,14.16,14.16,0,0,1,1.46,0,12.14,12.14,0,0,1,1.47.12,15,15,0,0,1,1.49.28c.5.12,1,.26,1.49.43S257.53,273.09,258,273.31Z" transform="translate(-99.77 -134.44)"/><path class="cls-2" d="M346.78,162.44c-.2-.64-.42-1.28-.65-1.92s-.47-1.26-.73-1.9-.53-1.25-.81-1.88-.59-1.24-.91-1.85-.66-1.22-1-1.82-.72-1.2-1.11-1.78-.79-1.17-1.21-1.73-.87-1.13-1.33-1.68-.93-1.08-1.42-1.6-1-1-1.55-1.51-1.08-1-1.65-1.43-1.16-.89-1.76-1.31-1.21-.82-1.84-1.2-1.27-.73-1.93-1.06-1.32-.64-2-.92-1.37-.54-2.07-.77-1.41-.45-2.12-.63-1.42-.33-2.14-.46-1.44-.23-2.16-.3-1.44-.12-2.16-.15-1.44,0-2.15,0-1.43.07-2.14.13-1.41.16-2.1.27-1.39.24-2.06.39-1.36.32-2,.5-1.32.4-2,.62-1.28.46-1.91.72-1.25.52-1.86.81-1.21.58-1.8.9-1.18.63-1.75,1-1.14.68-1.69,1-1.1.73-1.64,1.1l-1.6,1.19c-.51.39-1,.79-1.5,1.18l-1.41,1.17c-.47.38-.92.77-1.36,1.16s-.89.77-1.32,1.15L284.62,151l-1.3,1.14L282,153.26l-1.31,1.14-1.31,1.12c-.44.37-.88.75-1.32,1.11l-1.31,1.11-1.32,1.09-1.33,1.09L272.76,161l-1.33,1.07q-1.32,1-2.67,2.07c-.9.68-1.81,1.34-2.72,2s-1.83,1.28-2.76,1.9-1.87,1.21-2.81,1.77-1.9,1.12-2.87,1.63-1.93,1-2.91,1.45-2,.87-3,1.25-2,.72-3,1q-.77.23-1.53.39c-.51.12-1,.22-1.54.31s-1,.16-1.56.21-1,.1-1.55.13-1,0-1.56,0-1,0-1.55-.08-1-.11-1.54-.19-1-.19-1.54-.31-1-.23-1.53-.38-1-.32-1.5-.51-1-.39-1.47-.61-1-.46-1.44-.72-1-.52-1.41-.81-.93-.58-1.38-.89-.91-.63-1.35-1-.88-.67-1.32-1h0a2.2,2.2,0,0,0-.25-.17,1.59,1.59,0,0,0-.27-.12l-.29-.07a1.43,1.43,0,0,0-.29,0,1.41,1.41,0,0,0-.58.12,1.66,1.66,0,0,0-.27.13l-.25.19a2.85,2.85,0,0,0-.23.26,1.64,1.64,0,0,0-.16.29,1.82,1.82,0,0,0-.11.3,1.86,1.86,0,0,0,0,.33,1.17,1.17,0,0,0,0,.32,1.09,1.09,0,0,0,.08.31,1,1,0,0,0,.14.3,2.83,2.83,0,0,0,.2.28c.41.44.84.88,1.27,1.31s.89.86,1.35,1.27.94.81,1.42,1.2,1,.76,1.5,1.12,1,.71,1.57,1,1.09.64,1.65.94,1.14.57,1.73.83,1.18.49,1.79.7,1.23.42,1.85.59,1.25.32,1.89.44,1.27.22,1.91.3,1.28.14,1.93.18,1.29,0,1.94,0,1.29,0,1.93-.07,1.28-.09,1.92-.17,1.27-.16,1.89-.27c1.26-.23,2.5-.51,3.72-.83s2.41-.7,3.59-1.11,2.33-.86,3.47-1.35,2.25-1,3.36-1.53,2.18-1.11,3.26-1.7,2.12-1.19,3.17-1.81,2.07-1.25,3.09-1.89,2-1.29,3-1.94l1.49-1,1.47-1,1.46-1,1.44-1,1.44-1.05,1.42-1,1.42-1.06,1.41-1.05c.46-.35.93-.69,1.39-1s.94-.7,1.4-1.06l1.4-1.07,1.39-1,1.37-1,1.35-1c.44-.31.88-.61,1.31-.89s.85-.56,1.26-.81l1.32-.76c.44-.24.89-.47,1.34-.7s.9-.44,1.35-.64.9-.4,1.36-.58.91-.35,1.37-.51.92-.3,1.38-.44.92-.25,1.38-.36.92-.2,1.38-.27.92-.14,1.38-.19.92-.09,1.37-.11.91,0,1.36,0,.89,0,1.33.07.88.09,1.32.16.86.15,1.28.24.85.21,1.26.34.82.28,1.21.43a17.48,17.48,0,0,1,4.47,2.55,18.7,18.7,0,0,1,1.94,1.74,24.28,24.28,0,0,1,1.74,2,25.65,25.65,0,0,1,1.54,2.26c.48.79.92,1.62,1.33,2.47s.78,1.74,1.12,2.65.65,1.83.91,2.78.51,1.93.71,2.91.37,2,.51,3,.24,2,.32,3.06.13,2.07.15,3.11,0,2.1,0,3.16-.08,2.11-.15,3.18-.17,2.12-.28,3.19-.24,2.13-.38,3.19l-.27,1.6c-.09.54-.18,1.07-.28,1.6s-.2,1.07-.31,1.6-.21,1.07-.32,1.6-.23,1.07-.35,1.6-.24,1.06-.37,1.6-.25,1.06-.38,1.59-.27,1.07-.41,1.6l-.45,1.64c-.14.54-.29,1.1-.44,1.65s-.31,1.1-.46,1.66l-.47,1.67c-.15.56-.31,1.11-.46,1.67l-.48,1.67c-.15.56-.31,1.11-.47,1.67l-.48,1.66-.63,2.12-.63,2.11-.63,2.12-.62,2.12-.63,2.12-.63,2.11-.63,2.12-.63,2.12.2-.07.21-.07.2-.07.2-.07.21-.07.2-.07.2-.06.2-.07.59-.25.59-.25.59-.25.59-.25.59-.25.59-.25.59-.25.59-.25,1.45-.6,1.45-.62,1.45-.63,1.43-.64,1.44-.64,1.43-.66,1.44-.66,1.42-.67.19-.65.19-.65.19-.65.18-.65.19-.66.19-.65.19-.65.18-.65.48-1.7c.15-.57.31-1.13.47-1.7l.46-1.69c.15-.57.31-1.13.46-1.7s.3-1.13.46-1.7l.45-1.71.45-1.72c.15-.58.3-1.16.46-1.74l.45-1.79c.14-.6.28-1.2.41-1.8s.26-1.21.39-1.81.23-1.22.35-1.83.22-1.22.32-1.83l.3-1.84.27-1.85c.09-.62.17-1.24.25-1.85.13-1.25.25-2.49.34-3.75s.17-2.51.22-3.78.08-2.53.08-3.81,0-2.55-.1-3.83-.17-2.57-.3-3.85-.31-2.58-.53-3.87-.47-2.57-.77-3.86S347.18,163.72,346.78,162.44Z" transform="translate(-99.77 -134.44)"/><path class="cls-2" d="M177.22,234.55c-.41-1-.83-2.07-1.24-3.11l-1.25-3.08-1.24-3.07q-.63-1.53-1.23-3.06c-.41-1-.82-2-1.22-3s-.79-2-1.18-3-.78-2-1.16-3-.75-2-1.12-3-.82-2.25-1.22-3.37-.78-2.26-1.16-3.39-.74-2.26-1.09-3.4-.69-2.27-1-3.4-.63-2.27-.93-3.41-.57-2.27-.83-3.41-.51-2.27-.73-3.41-.43-2.27-.62-3.4-.33-2.25-.46-3.38-.25-2.26-.33-3.38-.14-2.25-.17-3.35,0-2.21,0-3.3.11-2.15.23-3.2.27-2.09.46-3.1.44-2,.72-2.95a26.28,26.28,0,0,1,1-2.78c.19-.44.4-.87.61-1.29s.45-.83.7-1.23.5-.79.77-1.16.55-.74.84-1.09.6-.69.92-1,.65-.64,1-.94.7-.59,1.07-.86.75-.54,1.15-.79.8-.48,1.22-.71.85-.43,1.3-.62.89-.37,1.35-.54.94-.32,1.42-.46,1-.28,1.46-.39,1-.22,1.51-.31,1-.18,1.55-.25,1-.12,1.58-.17c1.07-.09,2.15-.13,3.25-.12s2.19,0,3.29.12,2.22.21,3.33.37,2.24.35,3.35.58,2.24.49,3.35.78,2.23.61,3.34,1,2.21.73,3.31,1.13,2.18.82,3.25,1.26l1.62.68,1.62.71,1.59.75,1.59.78,1.57.82q.78.4,1.56.84l1.54.88,1.53.9,1.56,1,1.63,1,1.68,1c.56.32,1.14.64,1.72.95s1.18.61,1.78.9,1.2.57,1.81.83,1.23.53,1.86.76,1.25.47,1.89.67,1.28.4,1.93.58,1.32.34,2,.48,1.34.27,2,.37,1.37.18,2.06.23a20.55,20.55,0,0,0,2.08.08c.7,0,1.39,0,2.09-.09s1.39-.15,2.09-.28,1.38-.3,2.07-.5,1.36-.45,2-.72,1.28-.58,1.9-.92a20,20,0,0,0,1.77-1.09A20.46,20.46,0,0,0,256.6,161a19.61,19.61,0,0,0,2.85-3,20.53,20.53,0,0,0,1.18-1.7c.36-.59.7-1.2,1-1.83a1.66,1.66,0,0,0,.1-.29,1.59,1.59,0,0,0,.06-.3,1.5,1.5,0,0,0,0-.3c0-.09,0-.19-.05-.29s-.07-.19-.11-.28a1.28,1.28,0,0,0-.15-.25,2.31,2.31,0,0,0-.2-.24,2.23,2.23,0,0,0-.24-.19,1.73,1.73,0,0,0-.62-.25,1.22,1.22,0,0,0-.33,0l-.32,0a1.06,1.06,0,0,0-.3.1,1.59,1.59,0,0,0-.29.15,1.27,1.27,0,0,0-.25.21,2.75,2.75,0,0,0-.22.26v0l0,0v0l0,0v0l0,0v0c-.3.45-.62.88-1,1.3a15.79,15.79,0,0,1-1.1,1.21c-.39.39-.8.76-1.22,1.11s-.87.67-1.33,1-.93.58-1.41.84-1,.48-1.47.68a14.28,14.28,0,0,1-1.52.51,13.79,13.79,0,0,1-1.55.33c-.52.09-1.05.16-1.58.2a14.08,14.08,0,0,1-1.59,0c-.54,0-1.07,0-1.61-.1s-1.07-.13-1.6-.23-1.07-.22-1.61-.35-1.06-.3-1.59-.47-1.05-.36-1.57-.56-1-.41-1.56-.64l-.77-.36-.76-.38-.76-.39-.75-.41-.75-.43-.74-.44-.74-.44-.74-.45-.74-.49c-.24-.16-.48-.32-.71-.49s-.48-.32-.71-.49l-.7-.5-.71-.52-.73-.53-.75-.56-.79-.58c-.52-.38-1-.76-1.57-1.13l-1.6-1.09-1.62-1.07c-.54-.35-1.09-.69-1.64-1s-1.11-.67-1.67-1l-1.69-1L212,143.2c-.57-.31-1.15-.61-1.73-.9q-1.75-.86-3.54-1.65c-1.2-.53-2.41-1-3.63-1.52s-2.47-.93-3.72-1.35-2.53-.81-3.81-1.16-2.59-.66-3.91-.94-2.64-.5-4-.69-2.71-.33-4.09-.42-2.77-.14-4.18-.13c-.7,0-1.4,0-2.11.09s-1.42.11-2.14.2-1.43.19-2.14.32-1.44.27-2.15.45-1.43.37-2.14.59-1.42.46-2.12.73-1.4.56-2.09.89-1.37.67-2,1-1.34.78-2,1.21-1.27.89-1.88,1.37-1.2,1-1.77,1.52-1.12,1.08-1.65,1.65-1,1.16-1.51,1.77-.95,1.23-1.38,1.86-.85,1.29-1.23,2-.74,1.32-1.07,2a41.84,41.84,0,0,0-1.72,4.15c-.49,1.39-.91,2.78-1.25,4.17s-.63,2.78-.84,4.17-.38,2.78-.48,4.17-.16,2.76-.17,4.13,0,2.73.08,4.09.16,2.69.28,4,.27,2.64.44,3.94.38,2.62.59,3.92.46,2.58.72,3.86.53,2.55.82,3.82.6,2.52.92,3.77.66,2.49,1,3.73.71,2.47,1.08,3.69.75,2.45,1.14,3.67.79,2.42,1.2,3.63c.17.49.33,1,.51,1.46l.51,1.46.52,1.45.54,1.44c.18.48.35,1,.54,1.44l.54,1.43c.18.48.36.95.55,1.43s.36.95.55,1.42l1.59.74,1.6.73,1.6.72,1.61.72,1.61.7,1.61.69,1.62.68,1.62.66.78.31.79.31.78.29.79.3.79.29.79.29.79.29Z" transform="translate(-99.77 -134.44)"/><path class="cls-2" d="M99.77,190.19c1.43.9,2.87,1.77,4.32,2.64s2.89,1.71,4.35,2.54,2.92,1.65,4.39,2.45,3,1.6,4.43,2.37,3,1.54,4.46,2.28,3,1.48,4.5,2.2,3,1.43,4.53,2.13l4.56,2q2.28,1,4.57,2t4.6,1.92q2.31.94,4.63,1.84t4.65,1.75c1.56.58,3.12,1.13,4.68,1.68s3.13,1.08,4.7,1.6,3.14,1,4.72,1.52,3.15,1,4.74,1.46q4.74,1.41,9.53,2.65t9.61,2.32q4.81,1.08,9.67,2c3.23.6,6.47,1.15,9.72,1.63s6.5.92,9.76,1.28,6.53.67,9.79.91,6.55.41,9.82.52,6.55.15,9.83.12h7.37l1.23,0c.41,0,.82,0,1.22-.06l1.23-.07,1.23-.07,1.22-.06,1.23-.07,1.23-.07,1.23-.07,1.22-.07,1.23-.06,2.44-.26,2.45-.24,2.45-.26,2.44-.26,2.44-.29c.82-.1,1.63-.2,2.44-.32l2.44-.35,2.42-.41,1.22-.2,1.21-.18,1.22-.18,1.22-.18,1.22-.19,1.21-.2,1.22-.22,1.2-.26,1.21-.25,1.2-.26,1.21-.26,1.21-.25,1.2-.26,1.21-.26,1.2-.25,1.21-.26,1.21-.25,1.2-.28,1.19-.31,1.19-.33,1.19-.34,1.19-.33,1.19-.33,1.2-.31,1.19-.31,1.2-.31,1.2-.3,1.2-.31,1.19-.32,1.19-.34,1.19-.36,1.17-.4q4.74-1.45,9.42-3.08t9.34-3.38q4.65-1.75,9.26-3.65t9.18-3.92q4.58-2,9.11-4.16t9-4.39q4.5-2.25,9-4.61t8.89-4.81c-2.59,2.16-5.24,4.26-7.92,6.31s-5.43,4.05-8.2,6-5.59,3.83-8.45,5.65-5.76,3.61-8.69,5.32-5.91,3.37-8.92,5-6,3.13-9.12,4.61-6.18,2.89-9.32,4.24-6.31,2.64-9.51,3.87-6.42,2.37-9.67,3.44-6.54,2.09-9.84,3-6.63,1.79-10,2.57-6.71,1.49-10.09,2.12-6.78,1.19-10.19,1.67-6.83.88-10.26,1.2-6.86.56-10.3.73-6.89.25-10.34.25q-2.58,0-5.16-.09c-1.72-.05-3.44-.11-5.16-.19s-3.44-.17-5.16-.29-3.44-.24-5.15-.39-3.43-.32-5.14-.5-3.42-.39-5.12-.62-3.41-.46-5.11-.73-3.4-.54-5.09-.84-3.37-.67-5.06-1-3.36-.72-5-1.11-3.34-.78-5-1.2-3.33-.85-5-1.3-3.31-.92-4.95-1.41-3.28-1-4.91-1.52-3.26-1.07-4.87-1.63-3.23-1.15-4.83-1.76-3.21-1.19-4.8-1.82-3.17-1.27-4.75-1.93-3.14-1.34-4.7-2-3.11-1.41-4.66-2.14-3.08-1.47-4.6-2.24-3-1.54-4.55-2.33-3-1.6-4.5-2.43-3-1.66-4.44-2.52-2.92-1.75-4.36-2.64-2.89-1.8-4.32-2.72-2.84-1.85-4.25-2.81-2.8-1.92-4.18-2.91-2.74-2-4.09-3-2.68-2.07-4-3.14-2.6-2.15-3.88-3.27S101,191.35,99.77,190.19Z" transform="translate(-99.77 -134.44)"/><path class="cls-2" d="M177.37,199.2c1.52.46,3,.9,4.55,1.32s3,.84,4.54,1.23,3,.77,4.54,1.13,3,.71,4.55,1.05,3,.65,4.55,1,3,.6,4.56.88,3,.54,4.56.79,3,.5,4.56.73,3.05.43,4.57.62,3.05.39,4.58.56,3,.34,4.57.49,3.06.28,4.58.4,3.06.22,4.59.31,3.05.15,4.58.2,3.06.09,4.59.1,3,0,4.58,0l4.58-.07c1.53,0,3.06-.08,4.58-.14s3.06-.13,4.59-.21,3.05-.18,4.58-.29,3.05-.24,4.58-.38,3.05-.3,4.57-.48,3-.38,4.56-.6,3-.46,4.56-.72c.76-.1,1.53-.2,2.29-.32l2.28-.36c.76-.13,1.52-.27,2.27-.42l2.28-.44,2.27-.47,2.27-.48,2.27-.48,2.29-.47c.39-.06.77-.12,1.16-.2l1.14-.23,1.14-.28,1.13-.29,1.12-.31,1.13-.31c.38-.1.75-.21,1.13-.3l1.14-.29,1.14-.29,1.14-.29,1.14-.29,1.15-.28,1.16-.27c.38-.1.77-.19,1.15-.27l1.17-.27,1.16-.25-1,.59-1,.59-1,.58-1,.57-1.05.56-1.05.56-1.05.56-1,.56-1.06.55-1.06.55-1.06.54c-.36.19-.71.37-1.07.54l-1.07.52-1.09.5-1.1.47-1.1.43-1.12.43-1.12.42-1.12.43-1.11.43L301,210l-1.12.43-1.12.43-1.11.42c-.37.16-.75.3-1.12.44s-.76.27-1.14.39l-1.14.35-1.15.31-1.16.3-1.16.3-1.16.31-1.16.32c-1.54.44-3.09.84-4.65,1.22s-3.12.72-4.69,1-3.15.6-4.73.86-3.17.49-4.77.69-3.18.38-4.78.53-3.2.28-4.8.38-3.21.18-4.81.24-3.21.08-4.82.09l-1.2,0L248,219l-1.2,0-1.21,0-1.2,0-1.2,0-1.2-.06-1.21-.07-1.19-.11-1.2-.1-1.2-.1-1.2-.1-1.2-.1-1.2-.11-1.2-.11-1.19-.13-2.38-.37-2.38-.38-2.37-.39-2.36-.42-2.36-.46c-.79-.16-1.57-.32-2.35-.5s-1.56-.35-2.34-.55-1.55-.39-2.32-.61c-1.54-.4-3.08-.82-4.62-1.27s-3.06-.93-4.57-1.43-3-1-4.52-1.59-3-1.14-4.46-1.76-2.92-1.26-4.36-1.94-2.87-1.39-4.27-2.13-2.79-1.53-4.16-2.34S178.69,200.09,177.37,199.2Z" transform="translate(-99.77 -134.44)"/></svg>